<svg version="1.2" xmlns="http://www.w3.org/2000/svg" viewBox="0 0 800 800" width="800" height="800">
	<style>
		.s0 { fill: #ffffff } 
	</style>
	<path class="s0" d="m233.16 233.55c-13.02 13.01-13.02 34.12 0 47.14l119.51 119.5-119.51 119.51c-13.02 13.01-13.02 34.12 0 47.14 13.02 13.01 34.13 13.01 47.14 0l119.51-119.51 119.5 119.51c13.02 13.01 34.13 13.01 47.14 0 13.02-13.02 13.02-34.13 0-47.14l-119.5-119.51 119.5-119.5c13.02-13.02 13.02-34.13 0-47.14-13.02-13.02-34.12-13.02-47.14 0l-119.5 119.5-119.51-119.5c-13.01-13.02-34.12-13.02-47.14 0z"/>
</svg>