<svg version="1.2" xmlns="http://www.w3.org/2000/svg" viewBox="0 0 800 800" width="800" height="800">
	<style>
		.s0 { fill: #ffffff } 
	</style>
	<path fill-rule="evenodd" class="s0" d="m514.87 332.27c11.73 19.85 18.46 43 18.46 67.73 0 73.64-59.69 133.33-133.33 133.33-24.73 0-47.88-6.73-67.73-18.46l-142.03 142.03c-13.02 13.02-34.13 13.02-47.14 0-13.02-13.01-13.02-34.12 0-47.14l142.03-142.03c-11.73-19.85-18.46-43-18.46-67.73 0-73.64 59.69-133.33 133.33-133.33 24.73 0 47.88 6.73 67.73 18.46l142.03-142.03c13.02-13.02 34.13-13.02 47.14 0 13.02 13.01 13.02 34.12 0 47.14zm-40.89-120.05c-23.53-7.76-48.25-12.22-73.98-12.22-72.81 0-137.53 35.73-189.95 80.76-50.77 43.63-87.04 93.49-104.05 119.24 14.38 21.77 42.52 60.76 81.54 98.65l-47.14 47.15c-44.83-43.68-76.31-88.05-91.6-111.46-13.7-20.96-13.7-47.72 0-68.68 18.12-27.74 58.96-84.9 117.8-135.46 58.64-50.38 138.32-96.87 233.4-96.87 45.58 0 87.62 10.69 125.5 27.36zm115.98 307.02c50.77-43.63 87.04-93.49 104.05-119.24-14.38-21.77-42.52-60.76-81.54-98.65l47.14-47.15c44.83 43.68 76.31 88.05 91.6 111.46 13.7 20.96 13.7 47.72 0 68.68-18.12 27.74-58.96 84.9-117.8 135.46-58.64 50.38-138.32 96.87-233.4 96.87-45.58 0-87.62-10.69-125.5-27.36l51.52-51.53c23.53 7.76 48.25 12.22 73.98 12.22 72.81 0 137.53-35.73 189.95-80.76zm-172.69-183.65c-5.5-1.47-11.29-2.26-17.26-2.26-36.82 0-66.67 29.85-66.67 66.67 0 5.97 0.79 11.76 2.26 17.27zm-17.27 131.07c36.82 0 66.67-29.84 66.67-66.66 0-5.98-0.79-11.76-2.26-17.27l-81.68 81.68c5.51 1.47 11.3 2.25 17.27 2.25z"/>
</svg>