<?xml version="1.0" encoding="utf-8"?><!-- Uploaded to: SVG Repo, www.svgrepo.com, Generator: SVG Repo Mixer Tools -->
<svg fill="#000000" width="800px" height="800px" viewBox="0 0 14 14" role="img" focusable="false" aria-hidden="true" xmlns="http://www.w3.org/2000/svg"><path style="fill-rule:evenodd" d="m 9.4,4.3 0,-0.9 -4.8,0 0,0.9 0,5.4 0,0.9 4.8,0 0,-0.9 0,-5.4 0,0 z m 1.2,0.3 1.2,0 0,4.8 -1.2,0 0,-4.8 0,0 z m -7.2,0 -1.2,0 0,4.8 1.2,0 0,-4.8 0,0 z m 7.2,6 0,1.2 -7.2,0 0,-1.2 -2.4,0 0,-7.2 2.4,0 0,-1.2 7.2,0 0,1.2 2.4,0 0,7.2 -2.4,0 0,0 z"/></svg>