<svg version="1.2" xmlns="http://www.w3.org/2000/svg" viewBox="0 0 256 256" width="256" height="256">
	<style>
		.s0 { fill: #000000 } 
	</style>
	<path id="Layer 1 copy" fill-rule="evenodd" class="s0" d="m141.5 16h72c14.08 0 25.5 11.42 25.5 25.5 0 14.08-11.42 25.5-25.5 25.5h-72c-14.08 0-25.5-11.42-25.5-25.5 0-14.08 11.42-25.5 25.5-25.5z"/>
	<path id="Layer 1 copy 3" fill-rule="evenodd" class="s0" d="m92.5 102h121c14.08 0 25.5 11.42 25.5 25.5 0 14.08-11.42 25.5-25.5 25.5h-121c-14.08 0-25.5-11.42-25.5-25.5 0-14.08 11.42-25.5 25.5-25.5z"/>
	<path id="Layer 1 copy 5" fill-rule="evenodd" class="s0" d="m52.5 189h161c14.08 0 25.5 11.42 25.5 25.5 0 14.08-11.42 25.5-25.5 25.5h-161c-14.08 0-25.5-11.42-25.5-25.5 0-14.08 11.42-25.5 25.5-25.5z"/>
</svg>